 <svg version="1.0" xmlns="http://www.w3.org/2000/svg"  width="300.000000pt" height="143.000000pt" viewBox="0 0 300.000000 143.000000"  preserveAspectRatio="xMidYMid meet">  <g transform="translate(0.000000,143.000000) scale(0.100000,-0.100000)" fill="#000000" stroke="none"> <path d="M1913 1062 c-6 -4 -32 -50 -57 -103 -45 -94 -115 -190 -115 -159 0 8 12 41 27 72 l28 57 -35 -1 c-50 -1 -95 -31 -142 -94 -47 -64 -68 -71 -39 -13 12 22 20 50 18 62 -4 27 -39 34 -58 12 -12 -14 -15 -14 -31 1 -16 15 -19 14 -36 -7 -75 -92 -106 -117 -77 -61 18 34 18 47 0 61 -23 19 -59 -8 -155 -119 -37 -43 -39 -30 -6 44 29 66 29 66 11 66 -7 0 -32 -31 -55 -70 -40 -67 -57 -87 -67 -77 -3 2 7 32 22 66 19 43 32 61 45 61 11 0 19 5 19 11 0 6 -7 8 -16 5 -11 -4 -14 -2 -11 6 19 47 19 47 -1 41 -11 -2 -25 -16 -31 -29 -6 -13 -17 -24 -26 -24 -8 0 -15 -4 -15 -10 0 -5 7 -7 16 -3 15 5 15 3 1 -23 -26 -49 -80 -119 -84 -108 -2 6 5 30 16 54 14 32 17 49 10 62 -11 21 -39 24 -57 6 -20 -20 -13 -32 8 -13 30 27 34 12 10 -35 -12 -23 -20 -51 -18 -63 4 -31 42 -34 62 -5 16 21 18 22 27 6 13 -24 45 -23 62 2 12 18 15 18 20 5 9 -23 41 -18 67 10 24 25 24 25 32 5 10 -28 49 -26 78 5 13 14 29 25 35 25 14 0 58 47 75 80 8 14 15 20 17 13 2 -6 -10 -39 -27 -72 -28 -57 -29 -61 -10 -61 14 0 28 16 49 58 29 57 71 106 71 83 0 -6 -9 -30 -20 -52 -16 -30 -18 -44 -10 -59 14 -27 32 -25 60 5 24 25 24 25 32 5 10 -28 43 -25 67 8 20 26 20 26 21 5 0 -29 30 -31 55 -3 16 18 19 18 30 4 6 -9 20 -15 30 -13 19 4 83 85 74 94 -3 2 -20 -17 -39 -43 -18 -26 -35 -41 -37 -35 -3 7 19 63 47 125 29 62 54 119 57 126 6 13 -6 16 -24 4z m-179 -185 c-44 -87 -101 -128 -68 -49 17 42 63 94 75 86 5 -3 2 -20 -7 -37z m-344 -6 c0 -5 -7 -14 -16 -22 -9 -7 -14 -22 -11 -36 5 -25 -35 -69 -53 -58 -14 9 -5 40 26 88 22 33 54 50 54 28z"/> <path d="M1244 925 c-3 -8 -3 -19 0 -24 10 -16 36 -1 36 20 0 22 -28 26 -36 4z"/> <path d="M750 870 c-11 -11 -20 -24 -20 -30 0 -5 -7 -10 -15 -10 -8 0 -15 -5 -15 -11 0 -5 5 -7 10 -4 18 11 10 -5 -30 -65 -60 -89 -80 -92 -38 -6 18 37 19 47 8 60 -18 23 -45 20 -63 -6 -13 -18 -16 -19 -16 -7 -1 9 -8 19 -16 22 -10 4 -32 -19 -70 -74 -31 -43 -60 -77 -65 -74 -5 3 5 34 21 70 34 76 34 74 10 68 -23 -6 -64 -91 -59 -124 2 -18 9 -24 28 -24 20 0 35 14 70 67 70 105 75 104 26 -4 -23 -52 -24 -58 -8 -58 11 0 29 23 51 65 18 36 42 70 52 76 24 12 24 9 -2 -45 -23 -46 -21 -72 7 -83 11 -4 25 3 40 20 20 24 22 24 27 6 7 -27 42 -24 66 7 19 25 20 25 31 5 12 -23 40 -27 70 -11 10 5 39 39 65 75 26 37 49 64 52 62 2 -3 -9 -32 -26 -66 -36 -71 -36 -71 -13 -71 21 0 72 101 65 129 -8 31 -31 32 -53 3 -11 -15 -23 -31 -28 -37 -4 -5 -18 -25 -30 -43 -28 -39 -60 -58 -74 -44 -15 15 0 49 26 56 30 7 76 44 76 61 0 49 -96 4 -141 -66 -59 -92 -82 -84 -34 11 14 28 32 50 40 50 7 0 17 5 21 12 5 8 0 9 -14 6 -26 -7 -27 -5 -6 27 20 30 3 34 -26 5z m111 -70 c-19 -16 -37 -27 -40 -25 -8 9 42 55 58 55 11 -1 4 -11 -18 -30z"/> <path d="M455 854 c-11 -11 -13 -20 -6 -27 13 -13 41 -2 41 17 0 23 -17 28 -35 10z"/> <path d="M2642 847 c-5 -6 -17 -29 -27 -49 -9 -20 -28 -44 -41 -53 -13 -8 -24 -22 -24 -29 0 -18 -36 -63 -45 -55 -3 4 4 27 16 52 23 47 21 73 -7 84 -11 4 -24 -2 -36 -18 -18 -21 -21 -22 -29 -6 -15 26 -25 21 -64 -30 -49 -64 -69 -76 -50 -30 18 43 2 74 -32 63 -21 -7 -79 -66 -119 -122 -34 -46 -39 -21 -10 46 31 73 30 69 9 64 -10 -3 -30 -27 -45 -54 -22 -40 -26 -54 -18 -75 12 -33 43 -32 69 1 19 25 20 25 31 5 14 -28 46 -26 73 3 12 13 31 26 43 30 11 3 36 27 53 52 18 25 35 43 38 41 2 -3 -9 -32 -26 -66 -17 -33 -31 -62 -31 -65 0 -2 9 -2 21 1 12 3 32 28 49 62 28 57 55 89 66 78 3 -3 -4 -23 -15 -46 -26 -50 -26 -67 -1 -81 15 -8 24 -6 39 9 17 17 21 18 32 5 22 -27 99 7 99 44 0 9 -6 31 -12 50 -11 28 -10 38 4 62 17 29 9 51 -10 27z m-27 -153 c-17 -26 -39 -31 -51 -12 -4 7 2 18 14 26 12 8 22 22 22 31 0 9 6 23 13 30 19 20 22 -45 2 -75z m-299 41 c-9 -9 -16 -25 -16 -36 0 -32 -19 -59 -40 -59 -24 0 -25 15 -4 55 23 45 56 77 67 66 6 -6 4 -16 -7 -26z"/> <path d="M2192 818 c-7 -7 -12 -18 -12 -25 0 -18 29 -16 37 3 8 21 -10 37 -25 22z"/> <path d="M2100 800 c0 -6 -12 -22 -26 -35 -21 -20 -23 -25 -10 -25 14 0 11 -8 -14 -45 -58 -84 -100 -109 -100 -59 0 31 33 89 55 98 21 8 19 -4 -6 -30 -20 -21 -19 -44 1 -44 15 0 41 57 34 74 -15 38 -64 6 -142 -92 -37 -47 -72 -56 -72 -19 0 17 11 26 45 41 53 21 72 48 50 66 -12 10 -21 10 -45 0 -29 -12 -54 -37 -113 -114 -37 -47 -45 -40 -17 14 12 23 20 51 18 63 -4 28 -34 34 -59 11 -18 -17 -20 -17 -32 0 -16 22 -21 18 -90 -79 -27 -37 -51 -64 -54 -61 -4 3 4 28 17 56 19 41 21 52 10 65 -18 22 -45 19 -63 -7 -13 -18 -16 -19 -16 -7 -1 32 -30 29 -53 -4 -34 -48 -61 -77 -70 -77 -5 0 -4 9 2 19 14 27 13 68 -2 74 -23 8 -64 -21 -122 -87 -56 -64 -78 -77 -91 -56 -8 13 27 91 49 109 26 21 32 4 8 -22 -27 -28 -28 -37 -4 -37 21 0 44 42 36 65 -10 26 -45 16 -85 -24 -43 -43 -49 -71 -19 -101 26 -26 33 -25 73 9 32 29 34 29 45 10 17 -27 58 -24 78 6 9 14 24 25 33 25 19 0 46 27 75 73 31 50 29 21 -3 -42 -36 -71 -36 -71 -13 -71 12 0 26 17 41 49 27 57 66 109 76 99 3 -3 -3 -25 -15 -48 -27 -52 -21 -93 13 -88 14 2 39 28 72 76 57 85 70 81 25 -7 -28 -56 -29 -61 -11 -61 13 0 27 17 45 53 25 52 76 111 76 89 0 -6 -10 -32 -22 -56 -18 -37 -19 -47 -8 -60 18 -23 35 -20 62 13 24 28 25 28 34 7 14 -32 48 -31 85 2 33 30 33 30 44 8 15 -30 48 -31 76 -2 23 24 24 24 37 5 17 -24 34 -24 55 -1 24 26 21 39 -3 17 -31 -28 -32 -14 -3 53 20 46 32 62 47 63 17 1 18 2 4 6 -21 5 -21 8 -8 34 9 16 7 19 -10 19 -11 0 -20 -5 -20 -10z m-216 -101 c-10 -11 -28 -26 -39 -31 -12 -7 -7 3 14 26 36 37 59 42 25 5z m-541 -35 c3 -4 -2 -18 -13 -31 -10 -13 -16 -31 -13 -39 6 -17 -24 -54 -45 -54 -21 0 -8 55 24 97 25 33 35 39 47 27z"/> </g> </svg> 